<svg clip-rule="evenodd" fill-rule="evenodd" stroke-linejoin="round" stroke-miterlimit="2" viewBox="0 0 560 400" xmlns="http://www.w3.org/2000/svg"><g transform="matrix(4.00426 0 0 4.00426 30 168.418)"><path d="m10.909.258h2.949v15.295h-2.949v-6.45h-7.96v6.45h-2.949v-15.295h2.949v6.413h7.96zm9.546 4.865c1.511 0 2.691.479 3.575 1.437.885.959 1.327 2.285 1.327 4.018v.405h-7.261c.111.921.443 1.622 1.032 2.101.59.479 1.364.737 2.359.737.627 0 1.253-.111 1.843-.332s1.216-.553 1.843-1.032v2.027c-1.217.848-2.654 1.29-4.349 1.29-1.622 0-2.949-.479-3.944-1.474-1.032-.958-1.548-2.248-1.548-3.87 0-1.548.479-2.838 1.438-3.833.921-.995 2.174-1.474 3.685-1.474zm2.359 4.201c-.074-.737-.295-1.326-.663-1.732-.369-.405-.885-.626-1.585-.626-.664 0-1.217.184-1.622.589-.405.406-.663.996-.774 1.769zm7.887-4.201c1.327 0 2.322.295 3.022.848.7.552 1.032 1.326 1.032 2.358v5.013c0 .405.147.589.479.589.148 0 .332-.073.553-.184.221-.11.442-.258.59-.405v1.548c-.959.589-1.806.847-2.58.847-.479 0-.848-.073-1.106-.258-.258-.147-.442-.442-.553-.847-1.032.737-2.064 1.105-3.096 1.105-.737 0-1.363-.258-1.916-.737-.516-.479-.811-1.105-.811-1.769 0-.884.258-1.585.774-2.101s1.437-.958 2.764-1.326l2.175-.627v-.479c0-.995-.59-1.511-1.806-1.511-.627 0-1.253.147-1.843.442-.627.295-1.179.7-1.695 1.253v-2.432c1.142-.885 2.469-1.327 4.017-1.327zm-1.659 7.703c0 .368.111.663.369.884.221.221.516.332.885.332.589 0 1.179-.258 1.769-.811v-2.69c-.738.258-1.327.479-1.769.737-.443.221-.738.442-.959.7-.184.221-.295.516-.295.848zm11.131-12.568v15.295h-2.691v-15.295zm5.16 2.322h.221v2.727h3.501v2.027h-3.501v4.718c0 .442.147.848.405 1.106.295.294.664.442 1.143.442.626 0 1.363-.221 2.174-.664v2.175c-.958.442-1.879.663-2.727.663-1.143 0-2.064-.331-2.69-.958-.664-.627-.959-1.474-.959-2.543v-4.902h-1.585v-.442zm7.702-2.322v6.487h.074c.885-1.106 1.917-1.622 3.133-1.622 1.105 0 1.953.369 2.617 1.069.663.7.995 1.658.995 2.801v6.56h-2.691v-6.044c0-.7-.147-1.216-.479-1.622-.332-.405-.774-.626-1.327-.626-.405 0-.81.11-1.142.368-.369.221-.737.627-1.18 1.18v6.781h-2.69v-15.332z" fill="#e61b14"/><path d="m69.694.995v1.327c-1.327-.774-2.469-1.179-3.427-1.179-.922 0-1.696.294-2.322.847-.627.553-.922 1.253-.922 2.064 0 .59.185 1.143.553 1.585.369.479 1.143.921 2.285 1.364 1.18.442 2.027.81 2.543 1.105s.995.701 1.364 1.253c.369.553.553 1.29.553 2.175 0 1.179-.442 2.174-1.29 2.985s-1.917 1.216-3.17 1.216c-1.29 0-2.58-.442-3.906-1.326v-1.401c1.474 1.106 2.764 1.622 3.869 1.622.922 0 1.659-.295 2.285-.885.627-.589.922-1.327.922-2.174 0-.664-.184-1.253-.59-1.769-.368-.516-1.179-.995-2.359-1.475-1.179-.442-2.027-.81-2.543-1.105s-.921-.664-1.29-1.18c-.368-.516-.516-1.179-.516-1.99 0-1.142.443-2.101 1.29-2.875.848-.774 1.917-1.179 3.096-1.179 1.217.037 2.396.369 3.575.995zm4.46 1.106v3.39h2.838v.885h-2.838v6.008c0 .958.073 1.584.221 1.916.147.295.59.442 1.253.442.516 0 1.142-.147 1.843-.479v.958c-.701.332-1.401.516-2.101.516-.663 0-1.216-.184-1.659-.552-.442-.369-.663-.922-.663-1.585v-7.261h-2.727v-.884h2.727v-2.396l.737-.958zm11.351 4.349-.626.995c-.848-.774-1.511-1.143-2.027-1.143-.995 0-2.101.959-3.244 2.912v6.339h-1.068v-10.098h1.068v2.653h.037c1.217-1.916 2.396-2.838 3.538-2.838.664 0 1.438.406 2.322 1.18zm8.625 3.685h-7.961c-.037.185-.037.369-.037.516 0 1.143.405 2.064 1.216 2.875.811.774 1.769 1.179 2.838 1.179 1.29 0 2.543-.516 3.759-1.511v1.217c-1.142.884-2.432 1.326-3.869 1.326-1.438 0-2.654-.516-3.612-1.511-.959-.995-1.438-2.285-1.438-3.833 0-1.474.443-2.69 1.327-3.648.885-.959 1.99-1.438 3.317-1.438 1.253 0 2.322.442 3.17 1.327.847.811 1.29 1.99 1.29 3.501zm-7.814-.847h6.524c-.369-1.954-1.438-2.949-3.207-2.949-.811 0-1.548.258-2.137.774-.59.516-.959 1.216-1.18 2.175zm17.58 4.496v.885c-.921.7-1.621 1.068-2.027 1.068-.258 0-.405-.073-.516-.258-.11-.147-.147-.516-.221-.995-1.069.848-2.101 1.253-3.17 1.253-.773 0-1.4-.258-1.916-.737s-.774-1.105-.774-1.806c0-1.105.516-1.953 1.511-2.58 1.032-.626 2.469-.995 4.349-1.105v-1.29c0-1.364-.737-2.064-2.248-2.064-.958 0-1.99.442-3.096 1.29v-1.106c1.143-.7 2.211-1.069 3.243-1.069.922 0 1.659.221 2.248.664.59.442.885 1.105.885 1.953v6.266c0 .331.074.516.258.516.258.036.737-.258 1.474-.885zm-2.764-.221v-3.133c-1.364-.037-2.543.184-3.428.737-.921.553-1.363 1.217-1.363 2.064 0 .479.184.848.553 1.18.368.331.847.479 1.437.479.921-.037 1.843-.443 2.801-1.327zm4.865-8.108v1.769h.037c.811-1.327 1.879-1.991 3.206-1.991 1.548 0 2.617.811 3.244 2.433.958-1.622 2.1-2.433 3.501-2.433 1.032 0 1.879.369 2.543 1.106.626.737.958 1.732.958 2.985v6.192h-1.032v-5.676c0-1.105-.221-1.953-.7-2.579-.442-.627-1.106-.922-1.953-.922-.627 0-1.18.184-1.622.553s-.922.958-1.437 1.806v6.855h-1.069v-5.749c0-1.106-.221-1.991-.701-2.58-.479-.59-1.105-.922-1.916-.922-1.179 0-2.175.737-3.022 2.175v7.076h-1.069v-10.098zm15.185 8.255c0-1.032.847-1.806 1.842-1.806s1.843.774 1.843 1.806c0 1.069-.848 1.843-1.843 1.843s-1.842-.774-1.842-1.843zm1.842 1.548c.811 0 1.475-.663 1.475-1.511 0-.847-.664-1.511-1.475-1.511-.847 0-1.474.664-1.474 1.511 0 .848.663 1.511 1.474 1.511zm-.405-.479h-.295v-2.101h.811c.479 0 .737.185.737.59 0 .369-.221.553-.553.59l.59.921h-.369l-.553-.921h-.368zm.405-1.179c.258 0 .516-.037.516-.332 0-.258-.221-.295-.442-.295h-.442v.664h.368z" fill="#05222e"/></g></svg>