<svg width="505" height="580" viewBox="0 0 505 580" fill="none" xmlns="http://www.w3.org/2000/svg">
<g filter="url(#filter0_d_1204_46369)">
<rect x="108.701" y="67.7607" width="285.128" height="357.941" rx="29.8694" fill="#FF0000" fill-opacity="0.01"/>
</g>
<rect x="99.458" y="53.6728" width="303.613" height="381.432" rx="31.3636" fill="white" stroke="#EFF0F7" stroke-width="1.11907"/>
<rect x="192.627" y="104.337" width="117.276" height="15.0023" rx="7.50113" fill="#A0A3BD"/>
<rect opacity="0.15" x="128.21" y="191.583" width="33.1073" height="33.1073" rx="6.71441" fill="#A0A3BD"/>
<rect opacity="0.15" x="181.46" y="191.583" width="33.1073" height="33.1073" rx="6.71441" fill="#A0A3BD"/>
<rect opacity="0.15" x="234.71" y="191.583" width="33.1073" height="33.1073" rx="6.71441" fill="#A0A3BD"/>
<rect opacity="0.15" x="287.959" y="191.583" width="33.1073" height="33.1073" rx="6.71441" fill="#A0A3BD"/>
<rect opacity="0.15" x="341.209" y="191.583" width="33.1073" height="33.1073" rx="6.71441" fill="#A0A3BD"/>
<rect opacity="0.15" x="128.21" y="244.832" width="33.1073" height="33.1073" rx="6.71441" fill="#A0A3BD"/>
<rect opacity="0.15" x="181.46" y="244.832" width="33.1073" height="33.1073" rx="6.71441" fill="#A0A3BD"/>
<rect opacity="0.15" x="234.71" y="244.832" width="33.1073" height="33.1073" rx="6.71441" fill="#A0A3BD"/>
<rect opacity="0.15" x="287.959" y="244.832" width="33.1073" height="33.1073" rx="6.71441" fill="#A0A3BD"/>
<rect opacity="0.15" x="341.209" y="244.832" width="33.1073" height="33.1073" rx="6.71441" fill="#A0A3BD"/>
<rect opacity="0.15" x="128.21" y="298.083" width="33.1073" height="33.1073" rx="6.71441" fill="#A0A3BD"/>
<rect opacity="0.15" x="181.46" y="298.083" width="33.1073" height="33.1073" rx="6.71441" fill="#A0A3BD"/>
<g filter="url(#filter1_d_1204_46369)">
<rect x="234.71" y="298.083" width="33.1073" height="33.1073" rx="6.71441" fill="#FF0000" fill-opacity="0.01" shape-rendering="crispEdges"/>
</g>
<rect x="234.71" y="298.083" width="33.1073" height="33.1073" rx="6.71441" fill="#4A3AFF"/>
<rect opacity="0.15" x="287.959" y="298.083" width="33.1073" height="33.1073" rx="6.71441" fill="#A0A3BD"/>
<rect opacity="0.15" x="341.209" y="298.083" width="33.1073" height="33.1073" rx="6.71441" fill="#A0A3BD"/>
<rect opacity="0.15" x="128.21" y="351.334" width="33.1073" height="33.1073" rx="6.71441" fill="#A0A3BD"/>
<rect opacity="0.15" x="181.46" y="351.334" width="33.1073" height="33.1073" rx="6.71441" fill="#A0A3BD"/>
<rect opacity="0.15" x="234.71" y="351.334" width="33.1073" height="33.1073" rx="6.71441" fill="#A0A3BD"/>
<rect opacity="0.15" x="287.959" y="351.334" width="33.1073" height="33.1073" rx="6.71441" fill="#A0A3BD"/>
<rect opacity="0.15" x="341.209" y="351.334" width="33.1073" height="33.1073" rx="6.71441" fill="#A0A3BD"/>
<rect x="126.261" y="150.251" width="37.0087" height="14.4742" rx="7.23711" fill="#CFD0DD"/>
<rect x="179.513" y="150.251" width="37.0087" height="14.4742" rx="7.23711" fill="#CFD0DD"/>
<rect x="232.76" y="150.251" width="37.0087" height="14.4742" rx="7.23711" fill="#CFD0DD"/>
<rect x="286.012" y="150.251" width="37.0087" height="14.4742" rx="7.23711" fill="#CFD0DD"/>
<rect x="339.26" y="150.251" width="37.0087" height="14.4742" rx="7.23711" fill="#CFD0DD"/>
<defs>
<filter id="filter0_d_1204_46369" x="-1.61887" y="0.810581" width="505.768" height="578.581" filterUnits="userSpaceOnUse" color-interpolation-filters="sRGB">
<feFlood flood-opacity="0" result="BackgroundImageFix"/>
<feColorMatrix in="SourceAlpha" type="matrix" values="0 0 0 0 0 0 0 0 0 0 0 0 0 0 0 0 0 0 127 0" result="hardAlpha"/>
<feOffset dy="43.3699"/>
<feGaussianBlur stdDeviation="55.16"/>
<feColorMatrix type="matrix" values="0 0 0 0 0.124574 0 0 0 0 0.141235 0 0 0 0 0.541097 0 0 0 0.09 0"/>
<feBlend mode="normal" in2="BackgroundImageFix" result="effect1_dropShadow_1204_46369"/>
<feBlend mode="normal" in="SourceGraphic" in2="effect1_dropShadow_1204_46369" result="shape"/>
</filter>
<filter id="filter1_d_1204_46369" x="221.281" y="289.13" width="59.9651" height="59.9651" filterUnits="userSpaceOnUse" color-interpolation-filters="sRGB">
<feFlood flood-opacity="0" result="BackgroundImageFix"/>
<feColorMatrix in="SourceAlpha" type="matrix" values="0 0 0 0 0 0 0 0 0 0 0 0 0 0 0 0 0 0 127 0" result="hardAlpha"/>
<feOffset dy="4.47627"/>
<feGaussianBlur stdDeviation="6.71441"/>
<feComposite in2="hardAlpha" operator="out"/>
<feColorMatrix type="matrix" values="0 0 0 0 0.290196 0 0 0 0 0.227451 0 0 0 0 1 0 0 0 0.16 0"/>
<feBlend mode="normal" in2="BackgroundImageFix" result="effect1_dropShadow_1204_46369"/>
<feBlend mode="normal" in="SourceGraphic" in2="effect1_dropShadow_1204_46369" result="shape"/>
</filter>
</defs>
</svg>
