<svg clip-rule="evenodd" fill-rule="evenodd" stroke-linejoin="round" stroke-miterlimit="2" viewBox="0 0 560 400" xmlns="http://www.w3.org/2000/svg"><path d="m0 19.62v-17.334h6.451v17.334c0 3.032 1.474 4.109 3.424 4.109 1.951 0 3.424-1.077 3.424-4.109v-17.334h6.451v17.334c0 3.032 1.513 4.109 3.424 4.109s3.424-1.077 3.424-4.109v-17.334h6.451v17.334c0 6.981-4.062 10.093-9.317 10.093-3.146 0-5.655-1.237-7.208-3.591-1.553 2.354-4.062 3.591-7.207 3.591-5.255 0-9.317-3.112-9.317-10.093zm62.947-1.476-20.7.071c.95 3.083 3.825 5.325 7.208 5.313 1.938-.007 3.697-.758 5.027-1.972l7.468-.027c-2.12 4.798-6.905 8.164-12.472 8.184-7.546.028-13.71-6.102-13.736-13.664-.028-7.561 6.09-13.736 13.638-13.763 7.547-.028 13.71 6.102 13.736 13.665.004.746-.057 1.478-.169 2.193zm-13.546-9.676c-3.049.011-5.672 1.851-6.84 4.476l13.711-.05c-1.186-2.616-3.821-4.436-6.871-4.426zm39.912-6.182-9.326 13.714 9.326 13.714h-8.357l-5.973-8.783-5.973 8.783h-8.358l9.325-13.714-9.325-13.714h8.358l5.973 8.783 5.973-8.783zm-21.056 25.998 8.354-12.285-8.354-12.285h-4.907l8.353 12.286-8.353 12.285zm-.753-23.14 7.381 10.856-7.381 10.857h-1.456l7.382-10.857-7.382-10.856zm24.789-2.26h-.963v2.616h-.774v-2.616h-.945v-.598h2.682zm1.343-.598.716 2.237.713-2.237h1.019v3.214h-.776v-.751l.074-1.537-.776 2.288h-.511l-.779-2.29.075 1.539v.751h-.774v-3.214z" fill="#cf1f39" transform="matrix(3.74674 0 0 3.74674 100 140.052)"/></svg>